<svg width="70" height="70" fill="none" xmlns="http://www.w3.org/2000/svg"><g clip-path="url(#clip0_40_11)"><path d="M52.5 0h-35C7.835 0 0 7.835 0 17.5v35C0 62.165 7.835 70 17.5 70h35C62.165 70 70 62.165 70 52.5v-35C70 7.835 62.165 0 52.5 0z" fill="url(#paint0_linear_40_11)"/><path d="M61.542 34.125v2.917a2.917 2.917 0 01-2.917 2.916H28a2.917 2.917 0 01-2.917-2.916v-2.917A2.917 2.917 0 0128 31.208h30.625a2.917 2.917 0 012.917 2.917z" fill="#fff"/><path d="M61.542 35v-5.98a2.48 2.48 0 00-4.959 0v3.355A2.625 2.625 0 0059.208 35h2.334zM50.75 35a2.625 2.625 0 002.625-2.625v-5.25a2.625 2.625 0 10-5.25 0v5.25A2.625 2.625 0 0050.75 35zM8.167 35c0-6.443 5.223-11.667 11.666-11.667C26.277 23.333 31.5 28.557 31.5 35s-5.223 11.667-11.667 11.667C13.39 46.667 8.167 41.443 8.167 35z" fill="#fff"/></g><defs><linearGradient id="paint0_linear_40_11" x1="35" y1="0" x2="35" y2="70" gradientUnits="userSpaceOnUse"><stop stop-color="#F2709C"/><stop offset="1" stop-color="#FF9472"/></linearGradient><clipPath id="clip0_40_11"><path fill="#fff" d="M0 0h70v70H0z"/></clipPath></defs></svg>