<?xml version="1.0" encoding="utf-8"?><svg viewBox="0 0 24 24" xmlns="http://www.w3.org/2000/svg" xmlns:xlink="http://www.w3.org/1999/xlink"><style>:root>svg{display:none}:root>svg:target{display:block}</style><svg class="abi abi-eye" viewBox="0 0 16 16" id="eye" xmlns="http://www.w3.org/2000/svg"><path d="M16 8s-3-5.5-8-5.5S0 8 0 8s3 5.5 8 5.5S16 8 16 8M1.173 8a13 13 0 011.66-2.043C4.12 4.668 5.88 3.5 8 3.5s3.879 1.168 5.168 2.457A13 13 0 0114.828 8q-.086.13-.195.288c-.335.48-.83 1.12-1.465 1.755C11.879 11.332 10.119 12.5 8 12.5s-3.879-1.168-5.168-2.457A13 13 0 011.172 8z"/><path d="M8 5.5a2.5 2.5 0 100 5 2.5 2.5 0 000-5M4.5 8a3.5 3.5 0 117 0 3.5 3.5 0 01-7 0"/></svg><svg class="bbi bbi-eye-slash" viewBox="0 0 16 16" id="eye-slash" xmlns="http://www.w3.org/2000/svg"><path d="M13.359 11.238C15.06 9.72 16 8 16 8s-3-5.5-8-5.5a7 7 0 00-2.79.588l.77.771A6 6 0 018 3.5c2.12 0 3.879 1.168 5.168 2.457A13 13 0 0114.828 8q-.086.13-.195.288c-.335.48-.83 1.12-1.465 1.755q-.247.248-.517.486z"/><path d="M11.297 9.176a3.5 3.5 0 00-4.474-4.474l.823.823a2.5 2.5 0 012.829 2.829zm-2.943 1.299l.822.822a3.5 3.5 0 01-4.474-4.474l.823.823a2.5 2.5 0 002.829 2.829"/><path d="M3.35 5.47q-.27.24-.518.487A13 13 0 001.172 8l.195.288c.335.48.83 1.12 1.465 1.755C4.121 11.332 5.881 12.5 8 12.5c.716 0 1.39-.133 2.02-.36l.77.772A7 7 0 018 13.5C3 13.5 0 8 0 8s.939-1.721 2.641-3.238l.708.709zm10.296 8.884l-12-12 .708-.708 12 12z"/></svg><svg viewBox="0 0 24 24" id="files" xmlns="http://www.w3.org/2000/svg"><path d="M15 2H6a2 2 0 00-2 2v16a2 2 0 002 2h12a2 2 0 002-2V7l-5-5z"/><path d="M14 2v4a2 2 0 002 2h4M10 9H8m8 4H8m8 4H8"/></svg><svg viewBox="0 0 24 24" id="folder" xmlns="http://www.w3.org/2000/svg"><path d="M2 9V5a2 2 0 012-2h3.9a2 2 0 011.69.9l.81 1.2a2 2 0 001.67.9H20a2 2 0 012 2v10a2 2 0 01-2 2H4a2 2 0 01-2-2v-1m0-4h10m0 0l-3 3m3-3l-3-3"/></svg><svg viewBox="0 0 24 24" id="home" xmlns="http://www.w3.org/2000/svg"><path d="M3 9l9-7 9 7v11a2 2 0 01-2 2H5a2 2 0 01-2-2V9z"/><path d="M9 22V12h6v10"/></svg><svg viewBox="0 0 24 24" id="search" xmlns="http://www.w3.org/2000/svg"><path d="M11 19a8 8 0 100-16 8 8 0 000 16zm10 2l-4.3-4.3"/></svg><svg viewBox="0 0 24 24" id="settings" xmlns="http://www.w3.org/2000/svg"><path d="M12.22 2h-.44a2 2 0 00-2 2v.18a2 2 0 01-1 1.73l-.43.25a2 2 0 01-2 0l-.15-.08a2 2 0 00-2.73.73l-.22.38a2 2 0 00.73 2.73l.15.1a2 2 0 011 1.72v.51a2 2 0 01-1 1.74l-.15.09a2 2 0 00-.73 2.73l.22.38a2 2 0 002.73.73l.15-.08a2 2 0 012 0l.43.25a2 2 0 011 1.73V20a2 2 0 002 2h.44a2 2 0 002-2v-.18a2 2 0 011-1.73l.43-.25a2 2 0 012 0l.15.08a2 2 0 002.73-.73l.22-.39a2 2 0 00-.73-2.73l-.15-.08a2 2 0 01-1-1.74v-.5a2 2 0 011-1.74l.15-.09a2 2 0 00.73-2.73l-.22-.38a2 2 0 00-2.73-.73l-.15.08a2 2 0 01-2 0l-.43-.25a2 2 0 01-1-1.73V4a2 2 0 00-2-2z"/><path d="M12 15a3 3 0 100-6 3 3 0 000 6z"/></svg><svg viewBox="0 0 24 24" id="star" xmlns="http://www.w3.org/2000/svg"><path d="M12 2l3.09 6.26L22 9.27l-5 4.87 1.18 6.88L12 17.77l-6.18 3.25L7 14.14 2 9.27l6.91-1.01L12 2z"/></svg><svg viewBox="0 0 24 24" id="study" xmlns="http://www.w3.org/2000/svg"><path d="M22 10v6M6 12.5V16c0 .796.632 1.559 1.757 2.121C8.883 18.684 10.41 19 12 19c1.591 0 3.117-.316 4.243-.879C17.368 17.56 18 16.796 18 16v-3.5m3.42-1.578a1 1 0 00-.019-1.838L12.83 5.18a2 2 0 00-1.66 0L2.6 9.08a1 1 0 000 1.832l8.57 3.908a2 2 0 001.66 0l8.59-3.898z"/></svg><svg viewBox="0 0 24 24" id="users" xmlns="http://www.w3.org/2000/svg"><path d="M18 21a8 8 0 00-16 0M10 13a5 5 0 100-10 5 5 0 000 10zm12 7c0-3.37-2-6.5-4-8a5 5 0 00-.45-8.3"/></svg></svg>